<svg width="84" height="24" viewBox="0 0 84 24" fill="none" xmlns="http://www.w3.org/2000/svg">
<path d="M21.176 1.37849L17.7379 23.0356L12.3086 23.1214L8.34221 11.3626L6.48933 23.2134L1.06001 23.2992L4.52806 1.64171L10.1074 1.5535L14.0014 12.5333L15.7767 1.46386L21.176 1.37849ZM37.0335 22.7305L21.9754 22.9686L25.4434 1.31102L40.5015 1.07294L39.7356 5.76563L30.0768 5.91835L29.4509 9.97875L37.4299 9.85259L36.664 14.5453L28.685 14.6714L28.1406 18.1905L37.7994 18.0378L37.0335 22.7305ZM62.2544 0.729004L53.9677 11.7514L58.7864 22.3865L52.6372 22.4838L49.5884 15.6311L44.7481 22.6085L38.5989 22.7057L46.3786 11.8714L42.067 1.04819L48.2162 0.950963L50.8169 7.93072L56.1052 0.82623L62.2544 0.729004ZM82.2602 5.09328L74.8811 5.20995L72.179 22.1748L66.7497 22.2606L69.4518 5.29579L62.0428 5.41294L62.8087 0.720241L83.0261 0.400583L82.2602 5.09328Z" fill="#0066FF"/>
</svg>
